 http://img89.imageshack.us/img89/4663/redfactionorigins2011.jpg

Country.......: USA
Genre.........: Sci-Fi
Date release..: 04.06.2011 [World]
Director......: Michael Nankin
Writers.......: Danny Bilson, Paul De Meo
Duration......: 91 min.
More..........: http://www.imdb.com/title/tt1693872
Trailer.......:

Pilot :
On a Mars colony in the year 2145, an officer in a rebel militia discovers that his sister, who was abducted a dozen years before, is still alive and has been raised as a soldier whose goal is to bring about the destruction of her brother's faction. 

Cats :
Brian J. Smith   	 ...  	Jake
Danielle Nicolet 	... 	Tess De La Vega
Kate Vernon 	... 	The Matriarch
Tamzin Merchant 	... 	Lyra
Devon Graye 	... 	Leo
Gordon Kennedy 	... 	Corvallis
Gareth David Lloyd 	... 	Hale
Ariyon Bakare 	... 	Ben Sharpe
Peter Bankole 	... 	Ezra
Roger Ashton Griffiths 	... 	Grogan
Robert Patrick 	... 	Alec
Sarah Brown 	... 	Sam
Samuel Davies 	... 	Young Jake
Isabella Blake Thomas 	... 	Young Lyra
Mitchell Mullen 	... 	Ludlum 

Data Technical :
!!! SAMPLE !!!
Audio.....: English
Subtitles.: English .srt, Polish .txt
Format                           : AVI
Format/Info                      : Audio Video Interleave
File size                        : 700 MiB
Duration                         : 1h 31mn
Overall bit rate                 : 1 072 Kbps
Writing application              : VirtualDubMod 1.5.10.2 (build 2540/release)
Writing library                  : VirtualDubMod build 2540/release
Video
ID                               : 0
Format                           : MPEG-4 Visual
Format profile                   : Advanced Simple@L5
Format settings, BVOP            : Yes
Format settings, QPel            : No
Format settings, GMC             : No warppoints
Format settings, Matrix          : Default (H.263)
Codec ID                         : XVID
Codec ID/Hint                    : XviD
Duration                         : 1h 31mn
Bit rate                         : 937 Kbps
Width                            : 640 pixels
Height                           : 352 pixels
Display aspect ratio             : 16:9
Frame rate                       : 23.976 fps
Color space                      : YUV
Chroma subsampling               : 4:2:0
Bit depth                        : 8 bits
Scan type                        : Progressive
Bits/(Pixel*Frame)               : 0.174
Stream size                      : 612 MiB (87%)
Writing library                  : XviD 1.2.1 (UTC 2008-12-04)
Audio
ID                               : 1
Format                           : MPEG Audio
Format version                   : Version 1
Format profile                   : Layer 3
Mode                             : Joint stereo
Mode extension                   : MS Stereo
Codec ID                         : 55
Codec ID/Hint                    : MP3
Duration                         : 1h 31mn
Bit rate mode                    : Variable
Bit rate                         : 127 Kbps
Channel(s)                       : 2 channels
Sampling rate                    : 48.0 KHz
Stream size                      : 79.5 MiB (11%)
Alignment                        : Aligned on interleaves
Interleave, duration             : 24 ms (0.58 video frame)
Interleave, preload duration     : 151 ms
Writing library                  : LAME3.97 
Encoding settings                : -m j -V 4 -q 3 -lowpass 17 --abr 127

Screen : 
http://img545.imageshack.us/img545/5928/redfactionorigins2011s1.jpg 
http://img35.imageshack.us/img35/3455/redfactionorigins2011s2.jpg 
http://img269.imageshack.us/img269/6466/redfactionorigins2011s3.jpg 
http://img841.imageshack.us/img841/8835/redfactionorigins2011s4.jpg 
http://img685.imageshack.us/img685/1976/redfactionorigins2011s5.jpg